# xmcd
#
# Track frame offsets:
#	150
#	16726
#	32157
#	48107
#	64715
#	81108
#	97632
#
# Disc length: 1489 seconds
# Revision: 0
# Processed by: cddbd v1.5.2PL0 Copyright (c) Steve Scherf et al.
# Submitted via: dBpowerAMP V12.0
#
DISCID=4105cf07
DTITLE=Lacy Green - Lacy Green EP
DYEAR=2011
DGENRE=Country
TTITLE0=When the LIght is Gone
TTITLE1=Let Somebody Love You
TTITLE2=For the Summertime
TTITLE3=Second Coming
TTITLE4=Things You can Lose in Love
TTITLE5=Lonely Anywhere
TTITLE6=Something I Can Do Without
EXTD=
EXTT0=
EXTT1=
EXTT2=
EXTT3=
EXTT4=
EXTT5=
EXTT6=
PLAYORDER=
